<svg viewBox="0 0 48 48" xmlns="http://www.w3.org/2000/svg"><style>.a{fill:#f44336}.b{fill:#1565c0}</style><path d="M23.6 24.9c-.9-1.6-1.7-2.9-2.7-5.5-1.7-4.2 10.3-8 5.5-15.4 2.1 5.1-7.6 8.2-8.5 12.5-.8 3.9 5.7 8.4 5.7 8.4z" class="a"/><path d="M23.9 17.3c-.2 2.5 2.2 3.8 2.3 5.7 0 1.5-1.5 2.7-1.5 2.7s2.8-.5 3.6-2.8c1-2.5-1.8-4.3-1.5-6.3.2-1.9 6-5.5 6-5.5s-8.5.5-8.9 6.2z" class="a"/><path d="M32.1 25.1c1.7-.4 3.2.7 3.2 2 0 2.9-4 5.6-4 5.6s6.2-.7 6.2-5.5c0-3.1-3-3.9-5.4-2.1zM29.1 27.4s2-1.4 2.5-1.9c-4.8 1-15.7 1.1-15.7.3s3.6-1.7 3.6-1.7-7.8-.1-7.8 2.2c0 2.4 10.2 2.6 17.4 1.1z" class="b"/><path d="M27.9 29.6c-4.5 1.5-12.8 1-10.3-1-1.2 0-3 .9-3 1.9 0 1.8 9 3.3 15.6.5z" class="b"/><path d="M18.7 32.7c-1.6 0-2.7 1.1-2.7 1.9 0 2.4 9.8 2.6 13.6.2l-2.4-1.7c-2.9 1.3-10.2 1.5-8.5-.4z" class="b"/><path d="M36.3 36.6c0-.9-1.1-1.3-1.5-1.6 2.3 5.4-22.3 5-22.3 1.8 0-.7 1.8-1.4 3.5-1.1l-1.4-.8c-3.3-.5-5.6.9-5.6 2.1 0 5.5 27.3 5.3 27.3-.4z" class="b"/><path d="M39 38.6c-4.1 4.1-14.7 5.6-25.2 3.1 10.5 4.5 25.1 1.9 25.2-3.1z" class="b"/></svg>