<svg style="display:none;" xmlns="http://www.w3.org/2000/svg">
<!-- SVG Icons-->
  <symbol id="icon-html" viewBox="0 0 128 128">
    <path fill="#E44D26" d="M19.037 113.876L9.032 1.661h109.936l-10.016 112.198-45.019 12.48z"/><path fill="#F16529" d="M64 116.8l36.378-10.086 8.559-95.878H64z"/><path fill="#EBEBEB" d="M64 52.455H45.788L44.53 38.361H64V24.599H29.489l.33 3.692 3.382 37.927H64zm0 35.743l-.061.017-15.327-4.14-.979-10.975H33.816l1.928 21.609 28.193 7.826.063-.017z"/><path fill="#fff" d="M63.952 52.455v13.763h16.947l-1.597 17.849-15.35 4.143v14.319l28.215-7.82.207-2.325 3.234-36.233.335-3.696h-3.708zm0-27.856v13.762h33.244l.276-3.092.628-6.978.329-3.692z"/>
  </symbol>

  <symbol id="icon-css" viewBox="0 0 128 128">
    <path fill="#1572B6" d="M18.814 114.123L8.76 1.352h110.48l-10.064 112.754-45.243 12.543-45.119-12.526z"/><path   fill="#33A9DC" d="M64.001 117.062l36.559-10.136 8.601-96.354h-45.16v106.49z"/><path fill="#fff" d="M64.001   51.429h18.302l1.264-14.163H64.001V23.435h34.682l-.332 3.711-3.4 38.114h-30.95V51.429z"/><path fill="#EBEBEB"   d="M64.083 87.349l-.061.018-15.403-4.159-.985-11.031H33.752l1.937 21.717 28.331 7.863.063-.018v-14.39z"/><path   fill="#fff" d="M81.127 64.675l-1.666 18.522-15.426 4.164v14.39l28.354-7.858.208-2.337 2.406-26.881H81.127z"/><path fill="#EBEBEB" d="M64.048 23.435v13.831H30.64l-.277-3.108-.63-7.012-.331-3.711h34.646zm-.047   27.996v13.831H48.792l-.277-3.108-.631-7.012-.33-3.711h16.447z"/>  
  </symbol>
  
  <symbol id="icon-js" viewBox="0 0 128 128">
    <path fill="#F0DB4F" d="M1.408 1.408h125.184v125.185H1.408z"/><path fill="#323330" d="M116.347 96.736c-.917-5.711-4.641-10.508-15.672-14.981-3.832-1.761-8.104-3.022-9.377-5.926-.452-1.69-.512-2.642-.226-3.665.821-3.32 4.784-4.355 7.925-3.403 2.023.678 3.938 2.237 5.093 4.724 5.402-3.498 5.391-3.475 9.163-5.879-1.381-2.141-2.118-3.129-3.022-4.045-3.249-3.629-7.676-5.498-14.756-5.355l-3.688.477c-3.534.893-6.902 2.748-8.877 5.235-5.926 6.724-4.236 18.492 2.975 23.335 7.104 5.332 17.54 6.545 18.873 11.531 1.297 6.104-4.486 8.08-10.234 7.378-4.236-.881-6.592-3.034-9.139-6.949-4.688 2.713-4.688 2.713-9.508 5.485 1.143 2.499 2.344 3.63 4.26 5.795 9.068 9.198 31.76 8.746 35.83-5.176.165-.478 1.261-3.666.38-8.581zM69.462 58.943H57.753l-.048 30.272c0 6.438.333 12.34-.714 14.149-1.713 3.558-6.152 3.117-8.175 2.427-2.059-1.012-3.106-2.451-4.319-4.485-.333-.584-.583-1.036-.667-1.071l-9.52 5.83c1.583 3.249 3.915 6.069 6.902 7.901 4.462 2.678 10.459 3.499 16.731 2.059 4.082-1.189 7.604-3.652 9.448-7.401 2.666-4.915 2.094-10.864 2.07-17.444.06-10.735.001-21.468.001-32.237z"/>
  </symbol>

  <symbol id="icon-jquery" viewBox="0 0 128 128">
    <path fill="#0868AC" d="M9.625 32.181C-1.404 48.032-.031 68.657 8.394 85.501c.2.404.41.801.617 1.198l.394.759.246.437.439.786c.262.461.53.92.804 1.379l.459.756c.304.491.615.976.933 1.46l.398.614c.439.655.888 1.309 1.352 1.951l.039.05.228.308c.401.553.814 1.099 1.232 1.639l.464.59c.373.469.752.935 1.138 1.399l.435.52a75.27 75.27 0 0 0 1.586 1.812l.033.033.061.068a80.44 80.44 0 0 0 1.612 1.699l.517.521c.423.426.853.845 1.287 1.262l.527.5c.58.547 1.166 1.083 1.764 1.607l.028.022.307.262c.527.456 1.063.909 1.603 1.353l.664.529c.441.354.887.702 1.336 1.044l.714.543c.496.365.995.724 1.499 1.075l.546.387.15.107c.478.329.967.646 1.456.963l.63.42c.75.474 1.51.943 2.279 1.396l.63.355c.565.326 1.134.646 1.71.959.312.168.632.327.946.488.407.213.811.429 1.225.636l.283.137.501.242c.641.306 1.287.607 1.94.897l.41.184a66.92 66.92 0 0 0 2.263.941l.551.217c.704.271 1.418.539 2.135.791l.268.093c.787.275 1.581.53 2.381.779l.575.172c.814.245 1.619.538 2.458.693 53.339 9.727 68.833-32.053 68.833-32.053-13.013 16.953-36.111 21.425-57.996 16.446-.829-.187-1.633-.446-2.442-.685l-.609-.185a72.498 72.498 0 0 1-2.352-.765l-.323-.117a72.245 72.245 0 0 1-2.074-.769l-.582-.229c-.752-.297-1.5-.607-2.239-.931l-.447-.198a92.857 92.857 0 0 1-1.889-.879l-.546-.262c-.491-.239-.977-.493-1.461-.743-.324-.171-.654-.332-.975-.51a58.591 58.591 0 0 1-1.751-.982l-.591-.33a81.221 81.221 0 0 1-2.28-1.397l-.615-.41a59.283 59.283 0 0 1-1.623-1.079l-.522-.367a89.287 89.287 0 0 1-1.534-1.109l-.679-.514a64.473 64.473 0 0 1-1.384-1.082l-.617-.495a82.693 82.693 0 0 1-1.724-1.453l-.189-.159a83.466 83.466 0 0 1-1.812-1.647l-.511-.491c-.441-.42-.875-.843-1.302-1.277l-.51-.509a70.541 70.541 0 0 1-1.598-1.69l-.079-.084a67.39 67.39 0 0 1-1.621-1.844l-.424-.504a70.602 70.602 0 0 1-1.167-1.442l-.427-.532a78.406 78.406 0 0 1-1.347-1.794c-12.15-16.574-16.516-39.432-6.805-58.204m25.629-2.434c-7.977 11.478-7.543 26.844-1.321 38.983a50.581 50.581 0 0 0 3.528 5.889c1.195 1.713 2.52 3.751 4.106 5.127a48.111 48.111 0 0 0 1.79 1.858l.472.465a51.69 51.69 0 0 0 1.828 1.698l.074.064.018.018a55.268 55.268 0 0 0 2.135 1.767l.485.378a54.08 54.08 0 0 0 2.233 1.631l.065.049c.336.232.678.448 1.019.672l.483.319c.544.349 1.095.689 1.655 1.015l.235.136c.483.278.972.552 1.463.818l.521.271c.339.177.678.358 1.023.53l.155.07c.703.346 1.412.68 2.136.995l.472.194c.579.246 1.164.486 1.75.71l.75.275c.533.198 1.068.378 1.607.559l.727.233c.767.238 1.525.539 2.324.672 41.183 6.823 50.691-24.886 50.691-24.886-8.57 12.343-25.168 18.233-42.879 13.635a50.376 50.376 0 0 1-2.333-.674l-.701-.227a45.423 45.423 0 0 1-1.631-.562l-.736-.274a56.418 56.418 0 0 1-1.756-.708l-.473-.2a47.728 47.728 0 0 1-2.148-.999c-.363-.177-.72-.364-1.078-.548l-.622-.32a44.502 44.502 0 0 1-1.363-.77l-.326-.185a47.844 47.844 0 0 1-1.651-1.008l-.498-.332a61.759 61.759 0 0 1-1.069-.707 57.456 57.456 0 0 1-2.226-1.628l-.501-.395c-7.752-6.12-13.898-14.486-16.819-23.971-3.062-9.836-2.402-20.878 2.903-29.84m22.278-.775c-4.702 6.92-5.164 15.514-1.901 23.156 3.441 8.113 10.491 14.476 18.72 17.495.339.125.679.237 1.022.354l.451.143c.485.152.966.329 1.467.424 22.74 4.394 28.908-11.669 30.549-14.034-5.402 7.779-14.482 9.646-25.623 6.942-.88-.213-1.847-.531-2.695-.832a33.242 33.242 0 0 1-3.201-1.329 33.215 33.215 0 0 1-5.612-3.424c-9.969-7.565-16.162-21.994-9.657-33.745"/>
  </symbol>

  <symbol id="icon-bootstrap" viewBox="0 0 128 128">
    <path fill="#5B4282" d="M75.701 65.603c-2.334-.768-5.694-.603-10.08-.603H48v23h18.844c2.944 0 5.012-.315 6.203-.535 2.099-.376 3.854-1.104 5.264-1.982 1.409-.876 2.568-2.205 3.478-3.881.908-1.676 1.363-3.637 1.363-5.83 0-2.568-.658-4.54-1.975-6.436-1.316-1.896-3.141-2.965-5.476-3.733zm-2.419-10.516c2.317-.688 4.064-1.89 5.239-3.487 1.176-1.598 1.763-3.631 1.763-6.044 0-2.286-.549-4.314-1.646-6.054s-2.662-2.413-4.699-3.056c-2.037-.641-5.53-.446-10.48-.446H48v20h16.587c4.042 0 6.939-.38 8.695-.913zM126 18.625C126 9.443 118.557 2 109.375 2h-91.75C8.443 2 1 9.443 1 18.625v91.75C1 119.557 8.443 127 17.625 127h91.75c9.182 0 16.625-7.443 16.625-16.625v-91.75zm-35.447 66.12c-1.362 2.773-3.047 4.911-5.052 6.415-2.006 1.504-4.521 2.78-7.544 3.548C74.935 95.477 71.229 96 66.844 96H39V27h27.42c5.264 0 9.485.609 12.665 2.002 3.181 1.395 5.671 3.497 7.474 6.395 1.801 2.898 2.702 5.907 2.702 9.071 0 2.945-.8 5.708-2.397 8.308-1.598 2.602-4.011 4.694-7.237 6.292 4.166 1.222 7.37 3.304 9.61 6.248 2.24 2.945 3.36 6.422 3.36 10.432 0 3.227-.681 6.225-2.044 8.997z"/>
  </symbol>

  <symbol id="icon-sass" viewBox="0 0 128 128">
    <path fill-rule="evenodd" clip-rule="evenodd" fill="#CB6699" d="M1.219 56.156c0 .703.207 1.167.323 1.618.756 2.933 2.381 5.45 4.309 7.746 2.746 3.272 6.109 5.906 9.554 8.383 2.988 2.148 6.037 4.248 9.037 6.38.515.366 1.002.787 1.561 1.236-.481.26-.881.489-1.297.7-3.959 2.008-7.768 4.259-11.279 6.986-2.116 1.644-4.162 3.391-5.607 5.674-2.325 3.672-3.148 7.584-1.415 11.761.506 1.22 1.278 2.274 2.367 3.053.353.252.749.502 1.162.6 1.058.249 2.136.412 3.207.609l3.033-.002c3.354-.299 6.407-1.448 9.166-3.352 4.312-2.976 7.217-6.966 8.466-12.087.908-3.722.945-7.448-.125-11.153a11.696 11.696 0 0 0-.354-1.014c-.13-.333-.283-.657-.463-1.072l6.876-3.954.103.088c-.125.409-.258.817-.371 1.23-.817 2.984-1.36 6.02-1.165 9.117.208 3.3 1.129 6.389 3.061 9.146 1.562 2.23 5.284 2.313 6.944.075.589-.795 1.16-1.626 1.589-2.513 1.121-2.315 2.159-4.671 3.23-7.011l.187-.428c-.077 1.108-.167 2.081-.208 3.055-.064 1.521.025 3.033.545 4.48.445 1.238 1.202 2.163 2.62 2.326.97.111 1.743-.333 2.456-.896a10.384 10.384 0 0 0 2.691-3.199c1.901-3.491 3.853-6.961 5.576-10.54 1.864-3.871 3.494-7.855 5.225-11.792l.286-.698c.409 1.607.694 3.181 1.219 4.671.61 1.729 1.365 3.417 2.187 5.058.389.775.344 1.278-.195 1.928-2.256 2.72-4.473 5.473-6.692 8.223-.491.607-.98 1.225-1.389 1.888a3.701 3.701 0 0 0-.48 1.364 1.737 1.737 0 0 0 1.383 1.971 9.661 9.661 0 0 0 2.708.193c3.097-.228 5.909-1.315 8.395-3.157 3.221-2.386 4.255-5.642 3.475-9.501-.211-1.047-.584-2.065-.947-3.074-.163-.455-.174-.774.123-1.198 2.575-3.677 4.775-7.578 6.821-11.569.081-.157.164-.314.306-.482.663 3.45 1.661 6.775 3.449 9.792-.912.879-1.815 1.676-2.632 2.554-1.799 1.934-3.359 4.034-4.173 6.595-.35 1.104-.619 2.226-.463 3.405.242 1.831 1.742 3.021 3.543 2.604 3.854-.892 7.181-2.708 9.612-5.925 1.636-2.166 1.785-4.582 1.1-7.113-.188-.688-.411-1.365-.651-2.154.951-.295 1.878-.649 2.837-.868 4.979-1.136 9.904-.938 14.702.86 2.801 1.05 5.064 2.807 6.406 5.571 1.639 3.379.733 6.585-2.452 8.721-.297.199-.637.356-.883.605a.869.869 0 0 0-.205.67c.021.123.346.277.533.275 1.047-.008 1.896-.557 2.711-1.121 2.042-1.413 3.532-3.314 3.853-5.817l.063-.188-.077-1.63c-.031-.094.023-.187.016-.258-.434-3.645-2.381-6.472-5.213-8.688-3.28-2.565-7.153-3.621-11.249-3.788a25.401 25.401 0 0 0-9.765 1.503c-.897.325-1.786.71-2.688 1.073-.121-.219-.251-.429-.358-.646-.926-1.896-2.048-3.708-2.296-5.882-.176-1.544-.392-3.086-.025-4.613.353-1.469.813-2.913 1.246-4.362.223-.746.066-1.164-.646-1.5a2.854 2.854 0 0 0-.786-.258c-1.75-.254-3.476-.109-5.171.384-.6.175-1.036.511-1.169 1.175-.076.381-.231.746-.339 1.122-.443 1.563-.757 3.156-1.473 4.645-1.794 3.735-3.842 7.329-5.938 10.897-.227.385-.466.763-.752 1.23-.736-1.54-1.521-2.922-1.759-4.542-.269-1.832-.481-3.661-.025-5.479.339-1.356.782-2.687 1.19-4.025.193-.636.104-.97-.472-1.305-.291-.169-.62-.319-.948-.368a11.643 11.643 0 0 0-5.354.438c-.543.176-.828.527-.994 1.087-.488 1.652-.904 3.344-1.589 4.915-2.774 6.36-5.628 12.687-8.479 19.013-.595 1.321-1.292 2.596-1.963 3.882-.17.326-.418.613-.63.919-.17-.201-.236-.339-.235-.477.005-.813-.092-1.65.063-2.436a172.189 172.189 0 0 1 1.578-7.099c.47-1.946 1.017-3.874 1.538-5.807.175-.647.178-1.252-.287-1.796-.781-.911-2.413-1.111-3.381-.409l-.428.242.083-.69c.204-1.479.245-2.953-.161-4.41-.506-1.816-1.802-2.861-3.686-2.803-.878.027-1.8.177-2.613.497-3.419 1.34-6.048 3.713-8.286 6.568a2.592 2.592 0 0 1-.757.654c-2.893 1.604-5.795 3.188-8.696 4.778l-3.229 1.769c-.866-.826-1.653-1.683-2.546-2.41-2.727-2.224-5.498-4.393-8.244-6.592-2.434-1.949-4.792-3.979-6.596-6.56-1.342-1.92-2.207-4.021-2.29-6.395-.105-3.025.753-5.789 2.293-8.362 1.97-3.292 4.657-5.934 7.611-8.327 3.125-2.53 6.505-4.678 10.008-6.639 4.901-2.743 9.942-5.171 15.347-6.774 5.542-1.644 11.165-2.585 16.965-1.929 2.28.258 4.494.78 6.527 1.895 1.557.853 2.834 1.97 3.428 3.716.586 1.718.568 3.459.162 5.204-.825 3.534-2.76 6.447-5.195 9.05-3.994 4.267-8.866 7.172-14.351 9.091a39.478 39.478 0 0 1-9.765 2.083c-2.729.229-5.401-.013-7.985-.962-1.711-.629-3.201-1.591-4.399-2.987-.214-.25-.488-.521-.887-.287-.391.23-.46.602-.329.979.219.626.421 1.278.762 1.838.857 1.405 2.107 2.424 3.483 3.298 2.643 1.681 5.597 2.246 8.66 2.377 4.648.201 9.183-.493 13.654-1.74 6.383-1.78 11.933-4.924 16.384-9.884 3.706-4.13 6.353-8.791 6.92-14.419.277-2.747-.018-5.438-1.304-7.944-1.395-2.715-3.613-4.734-6.265-6.125C68.756 18.179 64.588 17 60.286 17h-4.31c-5.21 0-10.247 1.493-15.143 3.274-3.706 1.349-7.34 2.941-10.868 4.703-7.683 3.839-14.838 8.468-20.715 14.833-2.928 3.171-5.407 6.67-6.833 10.79a40.494 40.494 0 0 0-1.111 3.746m27.839 36.013c-.333 4.459-2.354 8.074-5.657 11.002-1.858 1.646-3.989 2.818-6.471 3.23-.9.149-1.821.185-2.694-.188-1.245-.532-1.524-1.637-1.548-2.814-.037-1.876.62-3.572 1.521-5.186 1.176-2.104 2.9-3.708 4.741-5.206 2.9-2.361 6.046-4.359 9.268-6.245l.243-.1c.498 1.84.735 3.657.597 5.507zM54.303 70.98c-.235 1.424-.529 2.849-.945 4.229-1.438 4.777-3.285 9.406-5.282 13.973-.369.845-.906 1.616-1.373 2.417a1.689 1.689 0 0 1-.283.334c-.578.571-1.126.541-1.418-.206-.34-.868-.549-1.797-.729-2.716-.121-.617-.092-1.265-.13-1.897.039-4.494 1.41-8.578 3.736-12.38.959-1.568 2.003-3.062 3.598-4.054a6.27 6.27 0 0 1 1.595-.706c.85-.239 1.372.154 1.231 1.006zm17.164 21.868l6.169-7.203c.257 2.675-4.29 8.015-6.169 7.203zm19.703-4.847c-.436.25-.911.43-1.358.661-.409.212-.544-.002-.556-.354a2.385 2.385 0 0 1 .093-.721c.833-2.938 2.366-5.446 4.647-7.486l.16-.082c1.085 3.035-.169 6.368-2.986 7.982z"/>
  </symbol>

  <symbol id="icon-git" viewBox="0 0 128 128">
    <path fill="#F34F29" d="M124.737 58.378L69.621 3.264c-3.172-3.174-8.32-3.174-11.497 0L46.68 14.71l14.518 14.518c3.375-1.139 7.243-.375 9.932 2.314 2.703 2.706 3.461 6.607 2.294 9.993l13.992 13.993c3.385-1.167 7.292-.413 9.994 2.295 3.78 3.777 3.78 9.9 0 13.679a9.673 9.673 0 0 1-13.683 0 9.677 9.677 0 0 1-2.105-10.521L68.574 47.933l-.002 34.341a9.708 9.708 0 0 1 2.559 1.828c3.778 3.777 3.778 9.898 0 13.683-3.779 3.777-9.904 3.777-13.679 0-3.778-3.784-3.778-9.905 0-13.683a9.65 9.65 0 0 1 3.167-2.11V47.333a9.581 9.581 0 0 1-3.167-2.111c-2.862-2.86-3.551-7.06-2.083-10.576L41.056 20.333 3.264 58.123a8.133 8.133 0 0 0 0 11.5l55.117 55.114c3.174 3.174 8.32 3.174 11.499 0l54.858-54.858a8.135 8.135 0 0 0-.001-11.501z"/>
  </symbol>

  <symbol id="icon-java" viewBox="0 0 48 48">
    <path d="M23.6 24.9c-.9-1.6-1.7-2.9-2.7-5.5-1.7-4.2 10.3-8 5.5-15.4 2.1 5.1-7.6 8.2-8.5 12.5-.8 3.9 5.7 8.4 5.7 8.4z" fill="#f44336"/><path d="M23.9 17.3c-.2 2.5 2.2 3.8 2.3 5.7 0 1.5-1.5 2.7-1.5 2.7s2.8-.5 3.6-2.8c1-2.5-1.8-4.3-1.5-6.3.2-1.9 6-5.5 6-5.5s-8.5.5-8.9 6.2z" fill="#f44336"/><path d="M32.1 25.1c1.7-.4 3.2.7 3.2 2 0 2.9-4 5.6-4 5.6s6.2-.7 6.2-5.5c0-3.1-3-3.9-5.4-2.1zM29.1 27.4s2-1.4 2.5-1.9c-4.8 1-15.7 1.1-15.7.3s3.6-1.7 3.6-1.7-7.8-.1-7.8 2.2c0 2.4 10.2 2.6 17.4 1.1z" fill="#1565c0"  /><path d="M27.9 29.6c-4.5 1.5-12.8 1-10.3-1-1.2 0-3 .9-3 1.9 0 1.8 9 3.3 15.6.5z" fill="#1565c0"  /><path d="M18.7 32.7c-1.6 0-2.7 1.1-2.7 1.9 0 2.4 9.8 2.6 13.6.2l-2.4-1.7c-2.9 1.3-10.2 1.5-8.5-.4z" fill="#1565c0"  /><path d="M36.3 36.6c0-.9-1.1-1.3-1.5-1.6 2.3 5.4-22.3 5-22.3 1.8 0-.7 1.8-1.4 3.5-1.1l-1.4-.8c-3.3-.5-5.6.9-5.6 2.1 0 5.5 27.3 5.3 27.3-.4z" fill="#1565c0"  /><path d="M39 38.6c-4.1 4.1-14.7 5.6-25.2 3.1 10.5 4.5 25.1 1.9 25.2-3.1z" fill="#1565c0"  />
  </symbol>

  <symbol id="icon-node" viewBox="0 0 128 128">
    <path fill="#83CD29" d="M114.325 80.749c-.29 0-.578-.076-.832-.224l-2.65-1.568c-.396-.221-.203-.3-.072-.345.528-.184.635-.227 1.198-.545.059-.033.136-.021.197.015l2.035 1.209a.261.261 0 0 0 .246 0l7.937-4.581a.248.248 0 0 0 .122-.215v-9.16a.256.256 0 0 0-.123-.219l-7.934-4.577a.254.254 0 0 0-.245 0l-7.933 4.578a.259.259 0 0 0-.125.218v9.16c0 .088.049.171.125.212l2.174 1.257c1.18.589 1.903-.105 1.903-.803v-9.045c0-.127.103-.228.23-.228h1.007c.125 0 .229.101.229.228v9.045c0 1.574-.857 2.477-2.35 2.477-.459 0-.82 0-1.828-.496l-2.081-1.198a1.676 1.676 0 0 1-.832-1.448v-9.16c0-.595.317-1.15.832-1.446l7.937-4.587a1.743 1.743 0 0 1 1.667 0l7.937 4.587c.514.297.833.852.833 1.446v9.16a1.68 1.68 0 0 1-.833 1.448l-7.937 4.582a1.651 1.651 0 0 1-.834.223m2.453-6.311c-3.475 0-4.202-1.595-4.202-2.932a.23.23 0 0 1 .23-.229h1.026a.23.23 0 0 1 .228.194c.154 1.045.617 1.572 2.718 1.572 1.671 0 2.383-.378 2.383-1.266 0-.512-.202-.891-2.8-1.146-2.172-.215-3.515-.694-3.515-2.433 0-1.601 1.35-2.557 3.612-2.557 2.543 0 3.801.883 3.96 2.777a.235.235 0 0 1-.06.176.236.236 0 0 1-.168.073h-1.031a.228.228 0 0 1-.223-.179c-.248-1.1-.848-1.451-2.479-1.451-1.825 0-2.037.637-2.037 1.112 0 .577.25.745 2.715 1.071 2.439.323 3.598.779 3.598 2.494.001 1.733-1.441 2.724-3.955 2.724"/><path fill="#404137" d="M97.982 68.43c.313-.183.506-.517.506-.88v-2.354c0-.362-.192-.696-.506-.879l-8.364-4.856a1.017 1.017 0 0 0-1.019-.002l-8.416 4.859a1.018 1.018 0 0 0-.508.88v9.716c0 .365.196.703.514.884l8.363 4.765c.308.177.686.178.997.006l5.058-2.812a.508.508 0 0 0 .006-.885l-8.468-4.86a.507.507 0 0 1-.256-.44v-3.046c0-.182.097-.349.254-.439l2.637-1.52a.505.505 0 0 1 .507 0l2.637 1.52a.507.507 0 0 1 .255.439v2.396a.507.507 0 0 0 .764.44l5.039-2.932"/><path fill="#83CD29" d="M88.984 67.974a.2.2 0 0 1 .195 0l1.615.933c.06.035.097.1.097.169v1.865c0 .07-.037.134-.097.169l-1.615.932a.194.194 0 0 1-.195 0l-1.614-.932a.194.194 0 0 1-.098-.169v-1.865c0-.069.037-.134.098-.169l1.614-.933"/><path fill="#404137" d="M67.083 71.854c0 .09-.048.174-.127.22l-2.89 1.666a.251.251 0 0 1-.254 0l-2.89-1.666a.255.255 0 0 1-.127-.22v-3.338c0-.09.049-.175.127-.221l2.89-1.668a.248.248 0 0 1 .255 0l2.891 1.668a.258.258 0 0 1 .126.221v3.338zm.781-24.716a.511.511 0 0 0-.756.444v12.915a.359.359 0 0 1-.177.308.359.359 0 0 1-.356 0l-2.108-1.215a1.017 1.017 0 0 0-1.015 0l-8.418 4.858a1.018 1.018 0 0 0-.509.881v9.719c0 .363.194.698.508.881l8.418 4.861c.314.182.702.182 1.017 0l8.42-4.861a1.02 1.02 0 0 0 .508-.881V50.821c0-.368-.2-.708-.521-.888l-5.011-2.795"/><path fill="#83CD29" d="M38.238 59.407a1.014 1.014 0 0 1 1.016 0l8.418 4.857c.314.182.508.518.508.881v9.722c0 .363-.194.699-.508.881l-8.417 4.861a1.02 1.02 0 0 1-1.017 0l-8.415-4.861a1.02 1.02 0 0 1-.508-.881v-9.723c0-.362.194-.698.508-.88l8.415-4.857"/><path fill="#404137" d="M22.93 65.064c0-.366-.192-.702-.508-.883l-8.415-4.843a.99.99 0 0 0-.464-.133h-.087a.993.993 0 0 0-.464.133l-8.416 4.843a1.02 1.02 0 0 0-.509.883l.018 13.04c0 .182.095.351.254.439a.487.487 0 0 0 .505 0l5-2.864c.316-.188.509-.519.509-.882v-6.092c0-.364.192-.699.507-.881l2.13-1.226a.994.994 0 0 1 .508-.137c.174 0 .352.044.507.137l2.128 1.226c.315.182.509.517.509.881v6.092c0 .363.195.696.509.882l5 2.864a.508.508 0 1 0 .76-.439l.019-13.04"/>
  </symbol>

  <symbol id="icon-react" viewBox="0 0 128 128">
    <g fill="#61DAFB"><circle cx="64" cy="64" r="11.4"/><path d="M107.3 45.2c-2.2-.8-4.5-1.6-6.9-2.3.6-2.4 1.1-4.8 1.5-7.1 2.1-13.2-.2-22.5-6.6-26.1-1.9-1.1-4-1.6-6.4-1.6-7 0-15.9 5.2-24.9 13.9-9-8.7-17.9-13.9-24.9-13.9-2.4 0-4.5.5-6.4 1.6-6.4 3.7-8.7 13-6.6 26.1.4 2.3.9 4.7 1.5 7.1-2.4.7-4.7 1.4-6.9 2.3C8.2 50 1.4 56.6 1.4 64s6.9 14 19.3 18.8c2.2.8 4.5 1.6 6.9 2.3-.6 2.4-1.1 4.8-1.5 7.1-2.1 13.2.2 22.5 6.6 26.1 1.9 1.1 4 1.6 6.4 1.6 7.1 0 16-5.2 24.9-13.9 9 8.7 17.9 13.9 24.9 13.9 2.4 0 4.5-.5 6.4-1.6 6.4-3.7 8.7-13 6.6-26.1-.4-2.3-.9-4.7-1.5-7.1 2.4-.7 4.7-1.4 6.9-2.3 12.5-4.8 19.3-11.4 19.3-18.8s-6.8-14-19.3-18.8zM92.5 14.7c4.1 2.4 5.5 9.8 3.8 20.3-.3 2.1-.8 4.3-1.4 6.6-5.2-1.2-10.7-2-16.5-2.5-3.4-4.8-6.9-9.1-10.4-13 7.4-7.3 14.9-12.3 21-12.3 1.3 0 2.5.3 3.5.9zM81.3 74c-1.8 3.2-3.9 6.4-6.1 9.6-3.7.3-7.4.4-11.2.4-3.9 0-7.6-.1-11.2-.4-2.2-3.2-4.2-6.4-6-9.6-1.9-3.3-3.7-6.7-5.3-10 1.6-3.3 3.4-6.7 5.3-10 1.8-3.2 3.9-6.4 6.1-9.6 3.7-.3 7.4-.4 11.2-.4 3.9 0 7.6.1 11.2.4 2.2 3.2 4.2 6.4 6 9.6 1.9 3.3 3.7 6.7 5.3 10-1.7 3.3-3.4 6.6-5.3 10zm8.3-3.3c1.5 3.5 2.7 6.9 3.8 10.3-3.4.8-7 1.4-10.8 1.9 1.2-1.9 2.5-3.9 3.6-6 1.2-2.1 2.3-4.2 3.4-6.2zM64 97.8c-2.4-2.6-4.7-5.4-6.9-8.3 2.3.1 4.6.2 6.9.2 2.3 0 4.6-.1 6.9-.2-2.2 2.9-4.5 5.7-6.9 8.3zm-18.6-15c-3.8-.5-7.4-1.1-10.8-1.9 1.1-3.3 2.3-6.8 3.8-10.3 1.1 2 2.2 4.1 3.4 6.1 1.2 2.2 2.4 4.1 3.6 6.1zm-7-25.5c-1.5-3.5-2.7-6.9-3.8-10.3 3.4-.8 7-1.4 10.8-1.9-1.2 1.9-2.5 3.9-3.6 6-1.2 2.1-2.3 4.2-3.4 6.2zM64 30.2c2.4 2.6 4.7 5.4 6.9 8.3-2.3-.1-4.6-.2-6.9-.2-2.3 0-4.6.1-6.9.2 2.2-2.9 4.5-5.7 6.9-8.3zm22.2 21l-3.6-6c3.8.5 7.4 1.1 10.8 1.9-1.1 3.3-2.3 6.8-3.8 10.3-1.1-2.1-2.2-4.2-3.4-6.2zM31.7 35c-1.7-10.5-.3-17.9 3.8-20.3 1-.6 2.2-.9 3.5-.9 6 0 13.5 4.9 21 12.3-3.5 3.8-7 8.2-10.4 13-5.8.5-11.3 1.4-16.5 2.5-.6-2.3-1-4.5-1.4-6.6zM7 64c0-4.7 5.7-9.7 15.7-13.4 2-.8 4.2-1.5 6.4-2.1 1.6 5 3.6 10.3 6 15.6-2.4 5.3-4.5 10.5-6 15.5C15.3 75.6 7 69.6 7 64zm28.5 49.3c-4.1-2.4-5.5-9.8-3.8-20.3.3-2.1.8-4.3 1.4-6.6 5.2 1.2 10.7 2 16.5 2.5 3.4 4.8 6.9 9.1 10.4 13-7.4 7.3-14.9 12.3-21 12.3-1.3 0-2.5-.3-3.5-.9zM96.3 93c1.7 10.5.3 17.9-3.8 20.3-1 .6-2.2.9-3.5.9-6 0-13.5-4.9-21-12.3 3.5-3.8 7-8.2 10.4-13 5.8-.5 11.3-1.4 16.5-2.5.6 2.3 1 4.5 1.4 6.6zm9-15.6c-2 .8-4.2 1.5-6.4 2.1-1.6-5-3.6-10.3-6-15.6 2.4-5.3 4.5-10.5 6-15.5 13.8 4 22.1 10 22.1 15.6 0 4.7-5.8 9.7-15.7 13.4z"/></g>
  </symbol>

  <symbol id="icon-webpack" viewBox="0 0 128 128">
    <path d="M117.29 98.1L66.24 127v-22.51L98 87l19.29 11.1zm3.5-3.16V34.55l-18.68 10.8v38.81l18.67 10.77zM10.71 98.1l51 28.88v-22.49L29.94 87zm-3.5-3.16V34.55l18.68 10.8v38.81zm2.19-64.3L61.76 1v21.76L28.21 41.21l-.27.15zm109.18 0L66.24 1v21.76L99.79 41.2l.27.15 18.54-10.71z" fill="#8ed6fb"/><path d="M61.76 99.37L30.37 82.1V47.92L61.76 66zm4.48 0l31.39-17.25v-34.2L66.24 66zM32.5 44L64 26.66 95.5 44 64 62.16 32.5 44z" fill="#1c78c0"/>
  </symbol>

  <symbol id="icon-mongo" viewBox="0 0 128 128">
    <path fill-rule="evenodd" clip-rule="evenodd" fill="#4FAA41" d="M82.803 34.23c-2.604-8.108-6.781-15.284-12.667-21.459-1.488-1.562-3.142-2.993-4.18-4.936-.656-1.23-1.281-2.477-1.92-3.715l-.406-1.021-.113.402c-.053 2.02-1.197 3.389-2.621 4.668-1.604 1.438-3.096 3-4.636 4.509l-4.736 6.229-3.829 7.042-2.561 6.915-.077.107c-1.409 4.629-2.104 9.389-2.445 14.195-.129 1.807.019 3.639.12 5.455.145 2.596.596 5.147 1.272 7.66 2.457 9.126 7.444 16.695 14.263 23.127 1.266 1.195 2.635 2.282 3.956 3.418l.585 2.008.544 3.116.26 3.253c-.003.66-.03 1.323.009 1.981.011.169.231.325.355.487l1.104.388 1.149.447-.197-2.891-.009-2.848.397-4.338.288-.944.825-1.461c1.018-.818 2.109-1.562 3.036-2.473 1.677-1.647 3.351-3.317 4.852-5.122a38.489 38.489 0 0 0 4.969-7.636c.899-1.833 1.747-3.703 2.448-5.618.618-1.688 1.001-3.463 1.488-5.2l.128-.375c1.005-4.688 1.174-9.424.805-14.19-.297-3.841-1.2-7.548-2.456-11.18zm-19.9 50.275c.154-.771.345-1.538.484-2.312-.139.774-.329 1.541-.484 2.312zm3.417.532l-.646-1.415.646 1.415.949.811-.949-.811zm40.154 17.927c-.826-1.583-2.038-2.785-3.64-3.574-1.342-.66-2.785-.95-4.269-.992-1.112-.032-2.228.025-3.342.039-.989.012-1.979.029-2.968.02-1.163-.012-2.326-.047-3.489-.08-.193-.006-.33.033-.42.229-.141.305-.308.599-.481.933l.194.062c.577.102 1.157.189 1.731.304.738.147 1.07.571 1.104 1.193.05.886.07 1.774.067 2.662-.015 3.514-.04 7.028-.066 10.541-.002.232-.006.474-.069.692-.073.252-.152.578-.34.702a2.907 2.907 0 0 1-1.115.425c-.561.092-.655.117-.83.669l-.076.276c-.084.301-.039.36.275.363 1.802.02 3.603.059 5.404.053 1.643-.006 3.286.094 4.923-.215 1.547-.291 2.991-.801 4.309-1.664 1.71-1.121 2.94-2.619 3.589-4.574.524-1.579.641-3.19.463-4.841a8.928 8.928 0 0 0-.954-3.223zm-3.157 9.661c-.964 1.794-2.402 2.992-4.457 3.308-1.287.197-2.576.14-3.803-.347-.777-.308-1.066-.979-1.09-1.772a82.426 82.426 0 0 1-.033-2.332c-.004-2.734-.004-5.468 0-8.201.002-.861.017-1.724.031-2.586.01-.606.137-.809.728-.858 2.596-.218 5.073.062 7.13 1.889 1.272 1.13 1.996 2.571 2.297 4.226.125.69.163 1.396.241 2.096-.063 1.598-.279 3.153-1.044 4.577zm21.789-2.961c-.512-1.246-1.482-2.027-2.701-2.527-.416-.171-.845-.312-1.294-.478l.157-.1c.485-.311 1.025-.562 1.443-.945 1.016-.931 1.438-2.102 1.24-3.493-.188-1.323-.848-2.294-2.027-2.924-1.07-.57-2.224-.778-3.418-.777-2.066.002-4.133.033-6.199.037-.712.001-1.424-.052-2.136-.062-.138-.002-.343.033-.402.125-.163.25-.271.538-.387.816-.067.162-.001.251.184.275.497.068.993.153 1.491.227.688.103 1.021.461 1.063 1.154l.009.411c.001 2.155.008 4.31-.001 6.465a926.932 926.932 0 0 1-.061 6.456c-.003.271-.04.543-.079.812-.059.406-.276.686-.692.774l-1.177.232c-.139.028-.34.024-.397.11-.216.323-.39.676-.366 1.102l.121.033 3.953.097.793-.003c1.368-.016 2.738.011 4.104-.059 1.479-.074 2.868-.513 4.152-1.268 1.367-.805 2.419-1.866 2.793-3.462.24-1.019.241-2.044-.166-3.028zm-10.043-9.181c.006-.433.197-.621.627-.632 1.059-.029 2.111-.023 3.133.342 1.322.472 2.135 1.612 2.12 3.005-.007.535.001 1.065-.196 1.579-.389 1.012-1.135 1.546-2.193 1.65-.552.056-1.109.062-1.601.088l-1.642-.072c-.218-.008-.313-.104-.312-.328l.064-5.632zm6.806 13.494c-.529 1.151-1.493 1.756-2.7 1.966a6.823 6.823 0 0 1-2.892-.127c-.706-.181-.994-.748-1.135-1.377-.095-.421-.079-.922-.087-1.36-.013-.676-.003-2.079-.003-2.079h-.014c0-1 .003-1.866-.003-2.825-.001-.207.034-.31.287-.302.898.027 1.799.042 2.697.077.803.031 1.555.269 2.262.65 1.076.58 1.724 1.468 1.902 2.688.136.925.078 1.835-.314 2.689zm-98.587 1.078l.019-5.437c.003-.818-.101-1.62-.369-2.396-.739-2.137-2.777-3.11-4.899-2.343-.965.349-1.83.878-2.656 1.478-.481.35-.481.35-.829-.149-.985-1.412-2.392-1.895-4.03-1.374-1.059.336-1.985.911-2.862 1.579-.082.062-.247.131-.296.094-.082-.061-.139-.206-.137-.315l.06-.966c.005-.203-.034-.407-.054-.62-.396.137-.712.274-1.043.354-1.023.25-2.053.48-3.082.715-.249.057-.512.132-.536.418-.025.281.246.328.456.412.442.178.881.367 1.318.559.367.162.504.455.502.849-.007 1.685.004 3.368-.006 5.053-.004.685-.036 1.369-.067 2.054-.028.607-.235.861-.823 1.014-.312.082-.629.137-.943.211-.069.016-.187.06-.188.094-.013.297-.029.601.021.89.01.052.324.052.498.072l.117-.007c1.212-.018 2.424-.037 3.637-.05.643-.007 1.285-.001 1.983-.001l.075-.97c-.4-.073-.757-.128-1.109-.205-.549-.12-.783-.411-.797-.965l-.01-.793c-.006-2.057-.014-4.113-.014-6.17 0-.299.124-.536.387-.715.557-.376 1.145-.675 1.796-.842 1.372-.351 2.562.137 3.09 1.304.167.368.298.775.335 1.175.194 2.062.11 4.126-.007 6.188-.025.445-.234.669-.673.778l-1.032.218c-.083.021-.204-.035-.21.034-.023.285-.01.722-.01.722h.246l3.142.103c.861-.002 1.723.102 2.583.124.154.003.291.026.3-.152a8.492 8.492 0 0 0-.011-.829l-.164-.029-.885-.199c-.597-.141-.803-.368-.805-.972-.007-1.489.013-2.977 0-4.465a45.225 45.225 0 0 0-.095-2.551c-.015-.226.02-.374.2-.501a5.311 5.311 0 0 1 1.732-.835c1.935-.51 3.519.551 3.619 2.546.098 1.924.057 3.855.042 5.783-.005.671-.227.874-.888 1.054l-.228.059c-.677.162-.671.162-.631.881.013.225.075.283.315.277 1.379-.031 2.758-.039 4.137-.051.564-.005 1.128 0 1.742 0l.125-.936c-.539-.143-1.036-.249-1.516-.406-.424-.144-.574-.4-.572-.848zm47.489-8.241c.568-.527.572-1.223.413-1.996-.45.471-.954.688-1.529.729-.771.055-1.528-.012-2.246-.319-1.942-.834-3.854-.775-5.76.14-1.603.768-2.589 1.965-2.688 3.78-.063 1.163.155 2.264.931 3.189.465.554 1.062.913 1.735 1.161.29.107.312.245.069.43a7.01 7.01 0 0 1-.557.38 73.2 73.2 0 0 1-1.226.754c-.241.146-.323.332-.244.617.231.838.826 1.322 1.57 1.675l.271.189-.237.237c-.729.591-1.487 1.149-2.185 1.776-.586.527-.775 1.233-.598 2.012.357 1.555 1.388 2.517 2.851 2.959 2.557.774 4.958.33 7.147-1.185 1.298-.899 2.229-2.069 2.512-3.679.317-1.809-.688-3.379-2.487-3.703-1.19-.216-2.408-.278-3.612-.416-.562-.064-1.132-.102-1.679-.231-.465-.11-.696-.489-.653-.859.043-.364.43-.703.873-.738.892-.072 1.766-.211 2.588-.587 2.178-.996 3.189-2.74 2.936-5.088-.033-.316-.105-.628-.17-.996.697.117 1.41.294 1.975-.231zm-6.609 11.017c.886.026 1.894.081 2.868.366.857.25 1.562.688 1.77 1.645.251 1.156-.305 2.306-1.424 2.924-1.048.578-2.186.626-3.34.507-.988-.102-1.877-.444-2.589-1.174-.938-.961-.943-2.291-.004-3.249.839-.856 1.288-1.033 2.719-1.019zm2.217-6.962c-.516 1.651-2.018 1.879-3.195 1.351-1.003-.449-1.44-1.333-1.669-2.342-.089-.388-.11-.791-.162-1.188.021-.569.115-1.115.36-1.627.751-1.577 2.596-1.483 3.617-.769.438.306.743.722.934 1.215a4.998 4.998 0 0 1 .115 3.36zm-9.37 5.263a7.984 7.984 0 0 1-1.057-.236c-.608-.186-.682-.3-.689-.943-.018-1.792-.03-3.584-.05-5.375-.01-.806-.106-1.601-.353-2.371-.65-2.03-2.641-3.12-4.633-2.521-1.104.333-2.052.952-2.935 1.679l-.322.247.001-.331c.021-.381.062-.762.059-1.143-.002-.199-.078-.399-.115-.574-.753.227-1.428.455-2.117.629-.691.174-1.396.292-2.095.434-.347.07-.602.28-.596.519.009.337.288.402.532.503.442.181.883.364 1.32.558.312.139.439.397.436.732-.022 2.329-.036 4.659-.07 6.989-.01.736-.196.93-.92 1.092l-.316.063c-.67.115-.689.142-.643.849l.004.117c-.008.272.111.36.391.357 1.78-.021 3.561-.031 5.341-.024.763.003.845-.057.829-.841l-.036-.337c-.436-.073-.853-.126-1.261-.216-.427-.095-.58-.27-.62-.704-.037-.397-.049-.8-.053-1.2-.02-1.831-.036-3.662-.045-5.492-.002-.461.083-.889.507-1.186a4.14 4.14 0 0 1 2.125-.762c1.588-.109 2.795.832 2.881 2.415.106 1.953.074 3.913.099 5.87.002.146-.024.293-.044.438-.038.286-.178.501-.468.575-.283.074-.57.14-.859.184-.431.064-.44.061-.473.496l.011.293c.051.506.052.491.564.486 1.722-.014 3.443-.023 5.164-.021.72.002.771-.032.777-.774l-.002-.176c.011-.19-.074-.267-.269-.298zm24.052-11.323c-1.805-.441-3.517-.113-5.143.728-1.58.817-2.636 2.08-3.038 3.824-.406 1.763-.212 3.483.567 5.12.507 1.063 1.287 1.885 2.349 2.419 2.486 1.252 5.527.684 7.477-.991 1.539-1.321 2.104-3.08 2.138-5.257-.021-.218-.042-.638-.1-1.054-.327-2.37-1.968-4.231-4.25-4.789zm1.367 9.155c-.479 1.886-2.11 2.724-3.95 2.076-.939-.33-1.641-.961-2.113-1.814-1.086-1.96-1.295-4.044-.677-6.182.412-1.424 1.584-2.203 2.978-2.105 1.246.087 2.204.685 2.907 1.699.741 1.07 1.027 2.287 1.103 3.565.013.205.002.41.002.616l.088.01c-.11.713-.162 1.44-.338 2.135zm-46.764-9.186c-1.899-.434-3.678-.005-5.326.96-1.425.834-2.346 2.08-2.699 3.708-.331 1.521-.196 3.016.343 4.473.328.888.825 1.669 1.554 2.278 1.535 1.281 3.329 1.605 5.238 1.248 1.616-.303 3.036-1.021 4.068-2.364.966-1.256 1.334-2.698 1.372-4.261-.057-.495-.071-.999-.176-1.482-.522-2.411-1.932-4.003-4.374-4.56zm1.549 9.18c-.463 1.876-2.12 2.735-3.947 2.087-1.173-.417-1.937-1.276-2.42-2.377-.774-1.769-.932-3.61-.431-5.476.384-1.427 1.541-2.478 3.312-2.226 1.087.154 1.935.709 2.567 1.592.854 1.191 1.135 2.555 1.174 3.988v.293l.072.011c-.105.704-.157 1.42-.327 2.108z"/>
  </symbol>



 </svg>